<?xml version="1.0" standalone="no"?>
<!DOCTYPE svg PUBLIC "-//W3C//DTD SVG 20010904//EN"
 "http://www.w3.org/TR/2001/REC-SVG-20010904/DTD/svg10.dtd">
<svg version="1.0" xmlns="http://www.w3.org/2000/svg"
 width="1024.000000pt" height="1024.000000pt" viewBox="0 0 1024.000000 1024.000000"
 preserveAspectRatio="xMidYMid meet">
<metadata>
Created by potrace 1.11, written by Peter Selinger 2001-2013
</metadata>
<g transform="translate(0.000000,1024.000000) scale(0.100000,-0.100000)"
fill="#000000" stroke="none">
<path d="M4997 9464 c-1 -2 -25 -6 -52 -9 -357 -46 -673 -257 -883 -592 -38
-60 -108 -226 -123 -292 -18 -79 -19 -85 -25 -126 -3 -22 -7 -51 -10 -65 -15
-87 -2 -303 25 -424 50 -217 156 -401 331 -577 167 -167 335 -265 546 -319
174 -45 438 -47 614 -5 416 99 781 461 883 875 9 36 19 79 23 95 3 17 8 107 9
200 4 231 -25 373 -115 556 -115 236 -335 456 -571 570 -86 42 -241 88 -349
105 -43 7 -297 13 -303 8z"/>
<path d="M2295 8369 c-98 -21 -176 -62 -255 -136 -72 -67 -111 -121 -141 -194
-31 -78 -32 -84 -35 -194 -2 -83 2 -113 22 -176 37 -118 85 -180 311 -404 114
-113 483 -478 818 -810 l610 -604 0 -2278 c0 -1253 3 -2303 7 -2334 19 -144
111 -290 238 -375 114 -77 188 -92 435 -92 298 0 383 29 538 181 39 39 98 144
119 211 21 71 21 76 22 1061 l1 990 135 0 135 0 1 -980 c1 -539 4 -996 8
-1015 36 -189 182 -357 366 -422 61 -21 81 -22 305 -22 225 0 244 1 305 23
138 48 255 153 321 286 33 67 38 84 47 170 4 33 7 1081 7 2328 l0 2268 665
658 c970 961 982 972 1018 1034 57 96 81 191 77 310 -3 113 -19 169 -72 257
-133 223 -393 320 -644 241 -97 -31 -173 -85 -310 -224 -68 -68 -403 -406
-743 -751 l-620 -626 -866 0 -867 0 -599 606 c-884 895 -878 889 -925 921
-124 86 -296 122 -434 92z"/>
</g>
</svg>
